<?xml version="1.0" encoding="utf-8"?>
<!-- Generator: Adobe Illustrator 22.1.0, SVG Export Plug-In . SVG Version: 6.00 Build 0)  -->
<svg version="1.1" id="Layer_1" xmlns="http://www.w3.org/2000/svg" xmlns:xlink="http://www.w3.org/1999/xlink" x="0px" y="0px"
	 viewBox="0 0 500 500" style="enable-background:new 0 0 500 500;" xml:space="preserve">
<style type="text/css">
	.st0{fill:#FFFFFF;}
</style>
<path d="M167.2,220c-15.3-19.6-21.3-41.3-16-65.7c3.7-17,12.5-31.2,26-42.2c28.6-23.4,69.1-22.7,97.2,0.7
	c23.8,19.8,41.6,65.5,9.2,107.3c14.4,5.6,28.9,11.1,43.2,16.9c16.9,6.8,26,19.4,26.1,37.8c0.1,27.2,0.2,54.5,0,81.7
	c-0.1,16.7-11.2,27.4-28,27.4c-66.4,0-132.8,0-199.2,0c-17.1,0-28-10.8-28.1-27.8c-0.1-26.9-0.1-53.9,0-80.8
	c0.1-18.8,9-31.5,26.4-38.5C138.3,231.3,152.6,225.8,167.2,220z M295,370.5c10.2,0,19.8,0,29.5,0c10.2,0,15.1-4.7,15.1-14.8
	c0.1-26.6,0.1-53.3,0-79.9c-0.1-13.4-5.8-21.6-18.4-26.5c-15.1-5.9-30.2-11.8-45.3-17.8c-2.6-1-4.3-0.5-6.5,1.1
	c-26.9,19-61.4,19-88.2,0c-2.4-1.7-4.2-2-6.9-0.9c-14.3,5.8-28.8,11.3-43.2,17c-14.9,5.8-20.2,13.4-20.2,29.4c0,25.3,0,50.6,0,75.9
	c0,1.4,0,2.7,0.1,4.1c0.7,7.9,5.6,12.5,13.7,12.6c9.2,0.1,18.4,0,27.6,0c1,0,2-0.2,3.3-0.3c0-6.9,0-13.5,0-20.1
	c0-13.1,0-26.2,0-39.3c0-4.2,2.9-7.1,6.6-7.1c3.6,0,6.3,2.6,6.7,6.6c0.1,1.3,0.1,2.7,0.1,4.1c0,17,0,34,0,51c0,1.6,0.1,3.2,0.2,4.9
	c37.6,0,74.9,0,112.4,0c0-7.4,0-14.5,0-21.5c0-12.3-0.1-24.7,0-37c0-5,2.7-8,6.7-8c4,0,6.6,3.1,6.7,8c0,3.9,0,7.8,0,11.7
	C295,338.9,295,354.3,295,370.5z M225,233.1c34.9,0,62.6-27.5,62.7-62.1c0-34.6-27.8-62.6-62.4-62.6c-34.6,0-62.4,27.9-62.5,62.5
	C162.8,205.3,190.7,233.2,225,233.1z"/>
<circle cx="372" cy="342" r="65"/>
<g>
	<path class="st0" d="M379.2,316.2c5.6,5.6,11,11,16.7,16.7c-1.5,1.5-3.2,3-4.7,4.5c-12.2,12.2-24.5,24.4-36.6,36.7
		c-1.5,1.5-3.2,2.1-5.1,2.5c-5.3,1.3-10.6,2.6-15.9,3.9c-1.7,0.4-2.6-0.6-2.2-2.2c1.5-6.2,3-12.3,4.6-18.5c0.1-0.5,0.5-1,0.9-1.4
		c14-14,28-28,42-42C378.9,316.4,379,316.3,379.2,316.2z"/>
	<path class="st0" d="M400.8,327.8c-5.6-5.6-11.1-11.1-16.4-16.4c2.1-2.2,4-4.7,6.4-6.7c3.1-2.6,7.8-2.2,10.8,0.6
		c1.8,1.7,3.5,3.4,5.1,5.2c3.1,3.4,3,8.2-0.1,11.5C404.7,324,402.7,325.9,400.8,327.8z"/>
</g>
</svg>
