<?xml version="1.0" encoding="utf-8"?>
<!-- Generator: Adobe Illustrator 22.1.0, SVG Export Plug-In . SVG Version: 6.00 Build 0)  -->
<svg version="1.1" id="Layer_1" xmlns="http://www.w3.org/2000/svg" xmlns:xlink="http://www.w3.org/1999/xlink" x="0px" y="0px"
	 viewBox="0 0 500 500" style="enable-background:new 0 0 500 500;" xml:space="preserve">
<g>
	<path d="M249.5,380.3c-51.8,0-103.6-0.1-155.4,0c-17.2,0-30.8-6.4-38.5-22.1c-2.7-5.5-4.3-12.2-4.4-18.4
		c-0.3-59.9-0.3-119.7-0.1-179.6c0.1-23.4,17.2-40,41.2-40.4c14.9-0.2,29.8,0,44.8,0c89.5,0,179,0.1,268.5-0.1
		c17.5,0,31.2,6.4,39,22.3c2.7,5.4,4.2,11.9,4.2,17.9c0.3,60.1,0.3,120.2,0.1,180.2c-0.1,23.5-17.6,40-42.1,40.1
		C354.4,380.3,301.9,380.3,249.5,380.3z M101.8,146.1c2.3,2.4,3.7,4,5.1,5.4c45.1,45.1,90.2,90.2,135.3,135.3
		c7.3,7.3,8.2,7.3,15.4,0.1c45.1-45.1,90.2-90.2,135.3-135.3c1.5-1.5,3-3.1,5.2-5.5C299,146.1,201.1,146.1,101.8,146.1z
		 M110.1,353.7c93.4,0,186.7,0,279.4,0c-26.8-26.9-53.7-53.8-80.6-80.8c0.2-0.1,0-0.1-0.1,0.1c-11.8,11.7-23.4,23.5-35.3,35
		c-14.2,13.9-32.8,13.8-47.1,0c-9.8-9.5-19.4-19.3-29-29c-2.3-2.3-4-5.1-5.5-7C163.8,300.1,137.1,326.8,110.1,353.7z M77.5,160.4
		c-2.4,31.4-0.9,180.7,1.4,184.2c30.6-30.5,61.2-61.2,91.3-91.3C139.7,222.7,108.7,191.7,77.5,160.4z M330.2,253.5
		c30,30.1,60.7,60.7,91.8,91.9c0-61.6,0-123.2,0-183.8C391.6,191.9,360.7,222.9,330.2,253.5z"/>
</g>
</svg>
