<?xml version="1.0" encoding="utf-8"?>
<!-- Generator: Adobe Illustrator 22.1.0, SVG Export Plug-In . SVG Version: 6.00 Build 0)  -->
<svg version="1.1" id="Layer_1" xmlns="http://www.w3.org/2000/svg" xmlns:xlink="http://www.w3.org/1999/xlink" x="0px" y="0px"
	 viewBox="0 0 500 500" style="enable-background:new 0 0 500 500;" xml:space="preserve">
<style type="text/css">
	.st0{fill:#FFFFFF;stroke:#FFFFFF;stroke-width:0.7867;stroke-miterlimit:10;}
</style>
<circle cx="250" cy="250" r="164.5"/>
<g>
	<path class="st0" d="M201.3,233.7c-12.8-16.4-17.9-34.6-13.4-55c3.1-14.3,10.5-26.1,21.8-35.3c24-19.6,57.8-19,81.4,0.6
		c19.9,16.6,34.8,54.9,7.7,89.8c12.1,4.7,24.2,9.3,36.2,14.2c14.2,5.7,21.8,16.2,21.9,31.7c0.1,22.8,0.1,45.6,0,68.5
		c-0.1,14-9.3,23-23.5,23c-55.6,0-111.2,0-166.8,0c-14.3,0-23.5-9-23.5-23.3c-0.1-22.6-0.1-45.1,0-67.7c0.1-15.8,7.5-26.4,22.1-32.2
		C177.1,243.1,189.1,238.5,201.3,233.7z M308.4,359.7c8.6,0,16.6,0,24.7,0c8.5,0,12.6-3.9,12.7-12.4c0.1-22.3,0.1-44.6,0-67
		c-0.1-11.3-4.9-18.1-15.4-22.2c-12.6-5-25.3-9.9-37.9-14.9c-2.2-0.9-3.6-0.4-5.5,0.9c-22.5,15.9-51.4,16-73.9,0
		c-2-1.4-3.5-1.7-5.8-0.8c-12,4.8-24.1,9.5-36.2,14.2c-12.5,4.9-16.9,11.2-16.9,24.6c0,21.2,0,42.4,0,63.6c0,1.1,0,2.3,0.1,3.4
		c0.6,6.7,4.7,10.5,11.4,10.5c7.7,0.1,15.4,0,23.1,0c0.8,0,1.7-0.2,2.8-0.3c0-5.8,0-11.3,0-16.8c0-11,0-21.9,0-32.9
		c0-3.5,2.4-5.9,5.5-6c3,0,5.3,2.2,5.6,5.5c0.1,1.1,0.1,2.3,0.1,3.4c0,14.3,0,28.5,0,42.8c0,1.3,0.1,2.7,0.2,4.1
		c31.5,0,62.7,0,94.1,0c0-6.2,0-12.1,0-18c0-10.3,0-20.7,0-31c0-4.2,2.3-6.7,5.6-6.7c3.4,0,5.5,2.6,5.6,6.7c0,3.3,0,6.6,0,9.8
		C308.4,333.2,308.4,346.2,308.4,359.7z M249.8,244.6c29.2,0,52.5-23.1,52.5-52c0-29-23.3-52.4-52.3-52.4c-29,0-52.3,23.4-52.3,52.4
		C197.7,221.3,221,244.7,249.8,244.6z"/>
	<path d="M308.4,359.7c0-13.5,0-26.5,0-39.5c0-3.3,0-6.6,0-9.8c-0.1-4.1-2.2-6.7-5.6-6.7c-3.4,0-5.6,2.5-5.6,6.7
		c-0.1,10.3,0,20.7,0,31c0,5.9,0,11.8,0,18c-31.4,0-62.6,0-94.1,0c-0.1-1.4-0.2-2.7-0.2-4.1c0-14.3,0-28.5,0-42.8
		c0-1.1,0.1-2.3-0.1-3.4c-0.4-3.3-2.7-5.5-5.6-5.5c-3.1,0-5.5,2.5-5.5,6c-0.1,11,0,21.9,0,32.9c0,5.5,0,11.1,0,16.8
		c-1.1,0.1-1.9,0.3-2.8,0.3c-7.7,0-15.4,0.1-23.1,0c-6.7,0-10.8-3.9-11.4-10.5c-0.1-1.1-0.1-2.3-0.1-3.4c0-21.2,0-42.4,0-63.6
		c0-13.4,4.4-19.8,16.9-24.6c12.1-4.7,24.2-9.4,36.2-14.2c2.3-0.9,3.8-0.6,5.8,0.8c22.5,15.9,51.4,15.9,73.9,0
		c1.8-1.3,3.3-1.8,5.5-0.9c12.6,5,25.3,9.9,37.9,14.9c10.5,4.1,15.4,10.9,15.4,22.2c0.1,22.3,0.1,44.6,0,67
		c0,8.4-4.2,12.4-12.7,12.4C325,359.7,317,359.7,308.4,359.7z"/>
	<path d="M249.8,244.6c-28.8,0-52.1-23.3-52.1-52.1c0-29,23.4-52.3,52.3-52.4c28.9,0,52.3,23.4,52.3,52.4
		C302.3,221.6,279,244.6,249.8,244.6z"/>
</g>
</svg>
