<?xml version="1.0" encoding="utf-8"?>
<!-- Generator: Adobe Illustrator 22.1.0, SVG Export Plug-In . SVG Version: 6.00 Build 0)  -->
<svg version="1.1" id="Layer_1" xmlns="http://www.w3.org/2000/svg" xmlns:xlink="http://www.w3.org/1999/xlink" x="0px" y="0px"
	 viewBox="0 0 500 500" style="enable-background:new 0 0 500 500;" xml:space="preserve">
<style type="text/css">
	.st0{fill:#FFFFFF;}
</style>
<g>
	<path d="M86,249.3c0.2-90,73.7-163.4,163.4-163.3c92.1,0.1,164.8,73.1,164.5,165.4c-0.2,89.8-74.2,162.7-165,162.6
		C159.1,413.9,85.8,339.8,86,249.3z M158.9,250.4c0,4.6,0,7.6,0,10.6c0,27.4,0,54.8,0,82.2c0,10.2,3.2,13.3,13.4,13.4
		c13.8,0.1,27.7-0.3,41.5,0.2c7.6,0.3,9.3-2.5,9.2-9.5c-0.4-18.8-0.2-37.6-0.1-56.5c0-13.6,0.6-14.2,13.9-14.3c7.5,0,14.9,0,22.4,0
		c13.9,0.1,14.7,0.9,14.7,14.4c0,19.4,0.2,38.8-0.1,58.1c-0.1,5.7,1.7,7.8,7.6,7.6c13.8-0.4,27.7-0.1,41.5-0.1
		c11.2,0,14.1-3,14.1-14.4c0-27.1,0.4-54.3-0.2-81.4c-0.2-8.5,2.2-11.3,10.7-10.6c8.3,0.7,16.6,0.2,24.9,0.2
		c0.1-0.8,0.3-1.6,0.4-2.4c-13.8-11.5-27.2-23.3-41.4-34.2c-6.5-5-8.7-10.4-8.3-18.3c0.6-12.4,0-24.9,0.2-37.4
		c0.1-6.3-2.4-9.2-8.8-9c-7.5,0.2-14.9,0.1-22.4,0c-5.5-0.1-8.2,2.4-8.1,8c0.1,4.8,0,9.6,0,16.7c-11.9-9.8-22.1-17.7-31.7-26.2
		c-4.4-3.9-7.2-4.1-11.8-0.1c-36.8,31.8-73.9,63.4-110.9,95.1c-2.2,1.8-4.2,3.9-6.2,5.8c0.3,0.6,0.5,1.3,0.8,1.9
		C135.3,250.4,146.5,250.4,158.9,250.4z"/>
	<path class="st0" d="M158.9,250.4c-12.4,0-23.6,0-34.8,0c-0.3-0.6-0.5-1.3-0.8-1.9c2.1-1.9,4.1-3.9,6.2-5.8
		c37-31.7,74.1-63.2,110.9-95.1c4.6-4,7.4-3.8,11.8,0.1c9.7,8.5,19.8,16.5,31.7,26.2c0-7,0.1-11.9,0-16.7c-0.1-5.6,2.6-8.1,8.1-8
		c7.5,0.1,15,0.3,22.4,0c6.5-0.2,8.9,2.7,8.8,9c-0.2,12.5,0.4,24.9-0.2,37.4c-0.4,7.9,1.8,13.3,8.3,18.3
		c14.2,10.9,27.7,22.7,41.4,34.2c-0.1,0.8-0.3,1.6-0.4,2.4c-8.3,0-16.7,0.6-24.9-0.2c-8.4-0.7-10.8,2.1-10.7,10.6
		c0.6,27.1,0.2,54.2,0.2,81.4c0,11.4-2.9,14.3-14.1,14.4c-13.8,0.1-27.7-0.2-41.5,0.1c-5.9,0.2-7.6-1.9-7.6-7.6
		c0.3-19.4,0.1-38.7,0.1-58.1c0-13.6-0.8-14.4-14.7-14.4c-7.5,0-14.9,0-22.4,0c-13.3,0-13.9,0.6-13.9,14.3c0,18.8-0.3,37.6,0.1,56.5
		c0.2,7.1-1.6,9.9-9.2,9.5c-13.8-0.6-27.7-0.1-41.5-0.2c-10.2-0.1-13.4-3.2-13.4-13.4c-0.1-27.4,0-54.8,0-82.2
		C158.9,258,158.9,255,158.9,250.4z"/>
</g>
</svg>
