<?xml version="1.0" encoding="utf-8"?>
<!-- Generator: Adobe Illustrator 22.1.0, SVG Export Plug-In . SVG Version: 6.00 Build 0)  -->
<svg version="1.1" id="Layer_1" xmlns="http://www.w3.org/2000/svg" xmlns:xlink="http://www.w3.org/1999/xlink" x="0px" y="0px"
	 viewBox="0 0 500 500" style="enable-background:new 0 0 500 500;" xml:space="preserve">
<path d="M363.8,211.7c0.1,21.2-7.4,40.3-18.2,57.8c-21,34-42.8,67.4-64.4,101c-7.2,11.2-14.7,22.2-22.2,33.2c-5.5,8-13.7,8.2-19,0.2
	c-26.4-40.2-52.9-80.3-79-120.7c-9.6-14.9-18.4-30.6-22.7-48.1c-10.8-43.5,2.5-90.8,40-120.4c25.3-19.9,54.2-27.5,86.1-23.9
	c45,5.1,85.5,40.9,95.8,85.3c2.7,11.6,3.4,23.6,5,35.4C364.8,211.6,364.3,211.7,363.8,211.7z M249.2,152.5
	c-28.8,0.2-52,23.5-51.9,52.3c0.1,28.9,23.7,52.3,52.6,52.1c28.6-0.2,51.9-23.9,51.7-52.6C301.5,175.6,277.9,152.3,249.2,152.5z"/>
</svg>
