<?xml version="1.0" encoding="utf-8"?>
<!-- Generator: Adobe Illustrator 22.1.0, SVG Export Plug-In . SVG Version: 6.00 Build 0)  -->
<svg version="1.1" id="Layer_1" xmlns="http://www.w3.org/2000/svg" xmlns:xlink="http://www.w3.org/1999/xlink" x="0px" y="0px"
	 viewBox="0 0 500 500" style="enable-background:new 0 0 500 500;" xml:space="preserve">
<style type="text/css">
	.st0{fill:#FFFFFF;}
</style>
<path d="M233,496c8.3,5.5,11.1,13.4,10,23c-3.3,0-6.7,0-10,0C233,511.3,233,503.7,233,496z"/>
<g>
	<g>
		<path d="M381.6,313.2c-102.8,0-203.6,0-305.3,0c-0.3-16.5,3.4-31.9,10.5-46.4c20.9-42.6,56.5-66.2,101.5-77.5
			c4.4-1.1,7.3-2.1,7.9-7.9c2.1-18.2,15.9-30.2,32.8-29.8c17.1,0.4,30.4,13.7,32,31.9c0.1,1,0.2,2,0.3,3.6
			C327.1,204,373.4,239.6,381.6,313.2z M366.2,308.5c1.4-66.1-69-118.5-139-113.4c64.1,12,109.8,43,118.2,113.4
			C352.2,308.5,358.9,308.5,366.2,308.5z M250.3,185.4c-0.2-9-3.9-15.8-11.5-20c-7.8-4.3-15.7-3.8-23,1.5
			c-6.4,4.6-9.4,10.8-8.7,18.6C221.6,185.4,235.3,185.4,250.3,185.4z"/>
		<path d="M228.3,317.8c48.5,0,96.9-0.2,145.4,0.2c5.2,0,11.2,2,15.2,5.2c5.3,4.1,6.7,10.7,3.8,17.4c-3.2,7.3-8.9,11-16.8,11
			c-20.4,0.1-40.8,0-61.2,0c-51.5,0-103,0-154.5,0c-26,0-52,0-78,0c-9.2,0-15.6-4.1-18.1-11.4c-3.8-11.1,3.8-22.1,15.8-22.3
			c17.1-0.3,34.2-0.1,51.3-0.1C163.6,317.8,195.9,317.8,228.3,317.8z"/>
		<path class="st0" d="M366.2,308.5c-7.3,0-14.1,0-20.8,0c-8.4-70.4-54-101.4-118.2-113.4C297.3,190,367.7,242.4,366.2,308.5z"/>
		<path class="st0" d="M250.3,185.4c-15,0-28.7,0-43.2,0c-0.7-7.8,2.3-14,8.7-18.6c7.3-5.3,15.2-5.8,23-1.5
			C246.5,169.6,250.1,176.4,250.3,185.4z"/>
	</g>
</g>
</svg>
