<?xml version="1.0" encoding="utf-8"?>
<!-- Generator: Adobe Illustrator 22.1.0, SVG Export Plug-In . SVG Version: 6.00 Build 0)  -->
<svg version="1.1" id="Layer_1" xmlns="http://www.w3.org/2000/svg" xmlns:xlink="http://www.w3.org/1999/xlink" x="0px" y="0px"
	 viewBox="0 0 500 500" style="enable-background:new 0 0 500 500;" xml:space="preserve">
<path d="M233,496c8.3,5.5,11.1,13.4,10,23c-3.3,0-6.7,0-10,0C233,511.3,233,503.7,233,496z"/>
<path d="M163.6,327.9c-2.9,0-5.4,0-8,0c-7.7,0-15.4,0.2-23.2-0.1c-24.3-0.8-42-19-42.1-43.3c-0.1-20.2,0-40.4,0-60.6
	c0-21.7,0-43.5,0-65.2c0.1-25.6,18.1-44,43.7-44.1c77.3-0.1,154.7-0.1,232,0c21.8,0,38.8,13.7,42.9,34.4c0.7,3.5,0.8,7.2,0.8,10.8
	c0.1,41.1,0.1,82.1,0,123.2c0,27.1-18.4,45.1-45.5,45c-40.4-0.1-80.8-0.1-121.2,0.1c-1.9,0-4.2,1.2-5.6,2.5
	c-16.9,16.7-33.7,33.7-50.6,50.4c-7.9,7.9-19.8,5.1-22.7-5.2c-0.5-1.9-0.6-4.1-0.6-6.1c0-12.4,0-24.7,0-37.1
	C163.6,331.2,163.6,329.8,163.6,327.9z"/>
</svg>
