<?xml version="1.0" encoding="utf-8"?>
<!-- Generator: Adobe Illustrator 22.1.0, SVG Export Plug-In . SVG Version: 6.00 Build 0)  -->
<svg version="1.1" id="Layer_1" xmlns="http://www.w3.org/2000/svg" xmlns:xlink="http://www.w3.org/1999/xlink" x="0px" y="0px"
	 viewBox="0 0 500 500" style="enable-background:new 0 0 500 500;" xml:space="preserve">
<path d="M254.4,80.6c-80.3,0-145.3,65.1-145.3,145.3s65.1,145.3,145.3,145.3c80.3,0,145.3-65.1,145.3-145.3S334.6,80.6,254.4,80.6z
	 M360.2,199.4c0.4,1.5,0.9,3,1.2,4.6c0.5,2.2,0.7,4.5,1,6.8c0.2,1.3,0.5,2.7,0.6,4c0.4,3.7,0.6,7.4,0.6,11.1c0,3.8-0.2,7.5-0.6,11.1
	c-0.1,1.4-0.4,2.7-0.6,4c-0.3,2.3-0.6,4.6-1,6.8c-0.3,1.6-0.8,3.1-1.2,4.6c-0.5,2-0.9,3.9-1.5,5.9c-0.5,1.7-1.2,3.3-1.8,4.9
	c-0.6,1.7-1.2,3.4-1.9,5.1c-0.7,1.7-1.6,3.4-2.4,5.1c-0.7,1.5-1.4,3-2.1,4.5c-1,1.8-2.1,3.5-3.1,5.2c-0.8,1.3-1.5,2.6-2.3,3.8
	c-1.2,1.8-2.6,3.5-3.9,5.2c-0.8,1.1-1.5,2.2-2.4,3.2c-1.5,1.8-3,3.4-4.6,5.1c-0.8,0.9-1.6,1.8-2.4,2.7c-1.7,1.7-3.5,3.2-5.3,4.8
	c-0.8,0.7-1.6,1.5-2.4,2.2c-1.9,1.6-3.9,3-5.9,4.4c-0.8,0.6-1.6,1.3-2.5,1.8c-2.1,1.4-4.3,2.7-6.4,3.9c-0.9,0.5-1.7,1.1-2.5,1.5
	c-2.2,1.2-4.5,2.3-6.9,3.3c-0.9,0.4-1.7,0.9-2.6,1.3c-2.3,1-4.8,1.8-7.2,2.7c-0.9,0.3-1.9,0.7-2.8,1c-2.4,0.8-4.9,1.3-7.4,1.9
	c-1,0.2-2,0.6-3.1,0.8c-2.4,0.5-4.9,0.8-7.4,1.2c-1.1,0.2-2.3,0.4-3.4,0.5c-2.4,0.3-4.9,0.3-7.3,0.4c-1.2,0-2.4,0.2-3.6,0.2v0
	c-0.3,0-0.5,0-0.8,0c-60.3,0-109.2-48.9-109.2-109.2c0-60.3,48.9-109.2,109.2-109.2c0.3,0,0.5,0,0.8,0v0c1,0,1.9,0.1,2.9,0.2
	c2.7,0.1,5.4,0.2,8,0.5c0.9,0.1,1.9,0.3,2.8,0.4c2.7,0.4,5.4,0.7,8,1.3c0.9,0.2,1.7,0.5,2.6,0.7c2.7,0.6,5.3,1.3,7.9,2.1
	c0.8,0.3,1.6,0.6,2.4,0.9c2.6,0.9,5.1,1.8,7.6,2.8c0.8,0.3,1.5,0.7,2.3,1.1c2.4,1.1,4.9,2.2,7.2,3.5c0.8,0.4,1.5,0.9,2.2,1.4
	c2.3,1.3,4.5,2.6,6.7,4.1c0.8,0.5,1.5,1.1,2.2,1.7c2.1,1.5,4.2,3,6.1,4.6c0.8,0.7,1.5,1.4,2.3,2.1c1.8,1.6,3.7,3.2,5.4,5
	c0.8,0.8,1.5,1.7,2.3,2.6c1.6,1.7,3.2,3.4,4.7,5.2c0.8,1,1.5,2.1,2.3,3.1c1.3,1.7,2.7,3.5,3.9,5.3c0.8,1.2,1.5,2.5,2.3,3.7
	c1.1,1.7,2.2,3.4,3.2,5.2c0.8,1.4,1.4,3,2.1,4.4c0.8,1.7,1.7,3.4,2.4,5.1c0.7,1.7,1.2,3.4,1.9,5.1c0.6,1.6,1.3,3.3,1.8,4.9
	C359.3,195.4,359.7,197.4,360.2,199.4z M357.1,225.9c0,56.8-46,102.8-102.8,102.8c-56.8,0-102.8-46-102.8-102.8
	c0-56.8,46-102.8,102.8-102.8C311.1,123.2,357.1,169.2,357.1,225.9z M451.3,112.5v240.1c0,6.4-4.1,11.8-9.5,13.3v0.1
	c-1,0.3-2.1,0.5-3.2,0.5c-7,0-13.6-6.3-12.8-13.9c2.5-22.9,15.7-72.1,8.9-91.7c-3.9-11.2-18.2-31.5-18.2-65.2
	c0-62.7,14.7-85.1,24.8-90.3c0.1-0.1,0.3-0.1,0.4-0.1C446.2,103.3,451.3,106.9,451.3,112.5z M90.8,106c3,19.4,5.9,55.7,5.9,74.5
	c0,23.1-4.7,22.8-18.4,28.3l5.1,144.4c0,7.7-5.7,13.9-12.8,13.9c-0.6,0-1.2-0.1-1.8-0.2v-0.1c-6.1-1-10.9-6.7-10.9-13.6l5.1-144.4
	c-13.7-5.5-18.4-5.2-18.4-28.3c0-18.8,2.8-55.6,5.8-74.5h3.2l0.7,81.7h6.7l1.7-81.7h3.2l1.5,81.7h1.5h1h4.2l1.6-81.7H79l1.5,81.7
	h6.7l0.6-81.7H90.8z"/>
</svg>
