<?xml version="1.0" encoding="utf-8"?>
<!-- Generator: Adobe Illustrator 22.1.0, SVG Export Plug-In . SVG Version: 6.00 Build 0)  -->
<svg version="1.1" id="Layer_1" xmlns="http://www.w3.org/2000/svg" xmlns:xlink="http://www.w3.org/1999/xlink" x="0px" y="0px"
	 viewBox="0 0 500 500" style="enable-background:new 0 0 500 500;" xml:space="preserve">
<style type="text/css">
	.st0{fill:#FFFFFF;}
</style>
<circle cx="250" cy="250" r="157"/>
<path class="st0" d="M227.8,272.2c-15.7,0-30.8,0.1-45.8,0c-12.5-0.1-22.1-9.2-22.6-21c-0.5-12.9,9.1-23.1,22.4-23.2
	c15.1-0.2,30.2,0,46.1,0c0-2,0-3.8,0-5.5c0-13.8-0.1-27.5,0.1-41.3c0.2-10.5,7.4-18.9,17.5-21.2c9.8-2.2,20.1,2.6,24.3,11.8
	c1.5,3.4,2.3,7.4,2.4,11.1c0.3,14.8,0.1,29.5,0.1,45c2,0,3.8,0,5.5,0c13.8,0,27.5-0.2,41.3,0.1c10.7,0.2,19.2,7.6,21.3,18
	c1.9,9.8-3.1,20-12.4,24c-3.4,1.5-7.4,2.1-11.2,2.2c-14.6,0.2-29.2,0.1-44.5,0.1c0,2.2,0,4.1,0,6c0,13.6,0.1,27.2-0.1,40.8
	c-0.2,10.5-7.4,18.9-17.5,21.2c-9.8,2.2-20.1-2.6-24.3-11.8c-1.5-3.4-2.3-7.4-2.4-11.1C227.7,302.5,227.8,287.7,227.8,272.2z"/>
</svg>
