<?xml version="1.0" encoding="utf-8"?>
<!-- Generator: Adobe Illustrator 22.1.0, SVG Export Plug-In . SVG Version: 6.00 Build 0)  -->
<svg version="1.1" id="Layer_1" xmlns="http://www.w3.org/2000/svg" xmlns:xlink="http://www.w3.org/1999/xlink" x="0px" y="0px"
	 viewBox="0 0 500 500" style="enable-background:new 0 0 500 500;" xml:space="preserve">
<style type="text/css">
	.st0{fill:#FFFFFF;}
</style>
<path d="M275.6,330.8c-19.8-0.6-38.1-5.6-55.3-15.1c-6.4-3.5-7.1-3.4-12.2,1.7c-18.2,18.2-36.5,36.5-54.7,54.7
	c-5.5,5.5-11.7,9.8-19.7,11.3c-9.7,1.8-17.1-1.8-23.1-9c-5.8-6.9-6.9-15-3.4-22.9c2.5-5.7,6.1-11.2,10.4-15.7
	c17.8-18.4,36.1-36.4,54.3-54.5c5.2-5.2,5.4-5.8,1.8-12.2c-11.9-21.1-16.7-43.8-13.8-67.6c4.3-36.4,22.5-64.8,53.4-84.5
	c59.9-38,140.7-12.2,167.8,53.3c27.3,66-10.5,140.1-80.1,156.7C292.7,329,284.1,329.6,275.6,330.8z M274.7,129.6
	c-47.2,0-85.5,37.9-85.6,85.1c-0.2,46.8,38.4,85.4,85.3,85.6c46.9,0.2,85.3-38.2,85.4-85.3C359.7,167.6,321.9,129.7,274.7,129.6z"/>
<path class="st0" d="M274.7,129.6c47.3,0,85.1,38,85,85.4c0,47.1-38.4,85.5-85.4,85.3c-46.9-0.2-85.5-38.8-85.3-85.6
	C189.2,167.6,227.5,129.6,274.7,129.6z M283.4,145.2c-34.5,1.9-57.7,15.6-71.6,43.8c-3.8,7.6-2,14.4,4.4,17.6
	c6.5,3.3,13.2,0.9,16.7-6.8c10.6-23.7,38.8-37.2,66.4-26.5c7.4,2.9,13.6-0.1,16.1-7c2.3-6.3-0.7-12.9-7.9-15
	C298.5,148.5,289.3,146.6,283.4,145.2z"/>
<path d="M283.4,145.2c5.9,1.4,15.1,3.2,24.1,5.9c7.1,2.1,10.1,8.7,7.9,15c-2.5,7-8.8,9.9-16.1,7c-27.6-10.7-55.8,2.8-66.4,26.5
	c-3.4,7.7-10.2,10.1-16.7,6.8c-6.4-3.2-8.1-10-4.4-17.6C225.7,160.9,248.9,147.1,283.4,145.2z"/>
</svg>
