<?xml version="1.0" encoding="utf-8"?>
<!-- Generator: Adobe Illustrator 22.1.0, SVG Export Plug-In . SVG Version: 6.00 Build 0)  -->
<svg version="1.1" id="Layer_1" xmlns="http://www.w3.org/2000/svg" xmlns:xlink="http://www.w3.org/1999/xlink" x="0px" y="0px"
	 viewBox="0 0 500 500" style="enable-background:new 0 0 500 500;" xml:space="preserve">
<path d="M250,78.5c-90.9,0-164.5,73.6-164.5,164.5S159.1,407.5,250,407.5S414.5,333.9,414.5,243S340.9,78.5,250,78.5z M250,133.2
	c28.9,0,52.3,23.4,52.3,52.4c0,29-23.3,52-52.5,52c-28.8,0-52.1-23.3-52.1-52.1C197.7,156.6,221.1,133.2,250,133.2z M345.8,340.3
	c0,8.4-4.2,12.4-12.7,12.4c-8.1,0-16.1,0-24.7,0c0-13.5,0-26.5,0-39.5c0-3.3,0-6.6,0-9.8c-0.1-4.1-2.2-6.7-5.6-6.7
	c-3.4,0-5.6,2.5-5.6,6.7c-0.1,10.3,0,20.7,0,31c0,5.9,0,11.8,0,18c-31.4,0-62.6,0-94.1,0c-0.1-1.4-0.2-2.7-0.2-4.1
	c0-14.3,0-28.5,0-42.8c0-1.1,0.1-2.3-0.1-3.4c-0.4-3.3-2.7-5.5-5.6-5.5c-3.1,0-5.5,2.5-5.5,6c-0.1,11,0,21.9,0,32.9
	c0,5.5,0,11.1,0,16.8c-1.1,0.1-1.9,0.3-2.8,0.3c-7.7,0-15.4,0.1-23.1,0c-6.7,0-10.8-3.9-11.4-10.5c-0.1-1.1-0.1-2.3-0.1-3.4
	c0-21.2,0-42.4,0-63.6c0-13.4,4.4-19.8,16.9-24.6c12.1-4.7,24.2-9.4,36.2-14.2c2.3-0.9,3.8-0.6,5.8,0.8c22.5,15.9,51.4,15.9,73.9,0
	c1.8-1.3,3.3-1.8,5.5-0.9c12.6,5,25.3,9.9,37.9,14.9c10.5,4.1,15.4,10.9,15.4,22.2C345.9,295.7,345.8,318,345.8,340.3z"/>
</svg>
