<?xml version="1.0" encoding="utf-8"?>
<!-- Generator: Adobe Illustrator 22.1.0, SVG Export Plug-In . SVG Version: 6.00 Build 0)  -->
<svg version="1.1" id="Layer_1" xmlns="http://www.w3.org/2000/svg" xmlns:xlink="http://www.w3.org/1999/xlink" x="0px" y="0px"
	 viewBox="0 0 500 500" style="enable-background:new 0 0 500 500;" xml:space="preserve">
<style type="text/css">
	.st0{stroke:#000000;stroke-miterlimit:10;}
</style>
<path class="st0" d="M188.2,229.2c-16.3-20.8-22.7-44-17.1-69.9c4-18.1,13.3-33.2,27.7-44.9c30.4-24.9,73.5-24.2,103.5,0.8
	c25.3,21.1,44.2,69.8,9.8,114.2c15.4,6,30.7,11.8,46,18c18,7.3,27.7,20.6,27.8,40.3c0.1,29,0.2,58,0,87
	c-0.1,17.8-11.9,29.2-29.8,29.2c-70.7,0-141.4,0-212.1,0c-18.2,0-29.8-11.5-29.9-29.6c-0.1-28.7-0.1-57.4,0-86.1
	c0.1-20,9.5-33.6,28.1-41C157.4,241.2,172.6,235.3,188.2,229.2z M324.2,389.4c10.9,0,21.1,0,31.4,0c10.8,0,16.1-5,16.1-15.7
	c0.1-28.4,0.1-56.8,0-85.1c-0.1-14.3-6.2-22.9-19.6-28.2c-16.1-6.3-32.2-12.5-48.2-19c-2.8-1.1-4.6-0.5-6.9,1.1
	c-28.6,20.3-65.4,20.3-93.9,0c-2.5-1.8-4.5-2.2-7.4-1c-15.3,6.1-30.6,12.1-46,18.1c-15.9,6.2-21.5,14.2-21.5,31.3
	c0,26.9,0,53.9,0,80.8c0,1.4,0,2.9,0.1,4.3c0.8,8.5,6,13.3,14.5,13.4c9.8,0.1,19.6,0,29.3,0c1.1,0,2.1-0.2,3.5-0.4
	c0-7.3,0-14.3,0-21.4c0-13.9,0-27.9,0-41.8c0-4.5,3.1-7.5,7-7.6c3.8,0,6.7,2.7,7.2,7c0.2,1.4,0.1,2.9,0.1,4.3c0,18.1,0,36.2,0,54.3
	c0,1.7,0.1,3.4,0.2,5.2c40,0,79.7,0,119.6,0c0-7.9,0-15.4,0-22.9c0-13.1-0.1-26.3,0-39.4c0-5.3,2.9-8.5,7.2-8.5c4.3,0,7,3.3,7.1,8.5
	c0.1,4.2,0,8.3,0,12.5C324.2,355.8,324.2,372.2,324.2,389.4z M249.7,243.2c37.2,0,66.7-29.3,66.7-66.2c0-36.8-29.6-66.6-66.4-66.6
	c-36.8,0-66.5,29.7-66.5,66.5C183.5,213.6,213.2,243.2,249.7,243.2z"/>
</svg>
