<?xml version="1.0" encoding="utf-8"?>
<!-- Generator: Adobe Illustrator 22.1.0, SVG Export Plug-In . SVG Version: 6.00 Build 0)  -->
<svg version="1.1" id="Layer_1" xmlns="http://www.w3.org/2000/svg" xmlns:xlink="http://www.w3.org/1999/xlink" x="0px" y="0px"
	 viewBox="0 0 500 500" style="enable-background:new 0 0 500 500;" xml:space="preserve">
<g>
	<path d="M330.3,383.5c-23.8-2.9-44.7-11.5-64.3-23.2c-60.8-36.2-107.3-85.5-135.6-150.9c-6.5-15-10.6-30.7-9.8-47.3
		c0.4-8.7,2.8-16.4,9.6-22.3c6.4-5.7,12.3-12.1,19.1-17.2c11.6-8.6,23-8,34,1.3c11.6,9.9,20.3,22.3,26,36.4
		c3.8,9.3,2.5,18.4-4.1,26.2c-3.3,3.8-6.9,7.3-10.5,10.8c-7,6.6-8.9,11.3-4.4,19.6c5.8,10.8,12.4,21.5,20.1,31.1
		c16.2,20.2,34.2,38.7,55.2,54c5.1,3.7,11.2,6.3,16.9,9.1c5.9,2.9,11.1,1.1,15.6-3.3c3.2-3.2,6.5-6.4,9.9-9.4
		c9.1-8.1,19.4-9.8,30.6-4.7c13,5.9,24.3,14.3,33.4,25.4c10,12.2,10.2,24.3,0.2,36.4c-6.2,7.5-13,15-20.8,20.6
		C345.4,380.1,337.4,381.1,330.3,383.5z"/>
	<path d="M348.2,254.1c-7-66.3-33.4-92.8-103.7-104.6c0-3.2,0-6.4,0-9.6c54.1-10.7,123.6,59.3,113.5,114.9
		C355,254.6,351.8,254.4,348.2,254.1z"/>
	<path d="M318.2,253.1c-7.9-48.1-25.2-65.5-72.8-72.8c-0.2-3-0.4-6.2-0.6-9.3c35.3-5.2,85.3,28.9,83.5,82.2
		C325.1,253.1,321.9,253.1,318.2,253.1z"/>
	<path d="M245.9,211.4c0-3.4,0-6.7,0-9.9c24.7-5.3,53.2,22.9,51.1,50.8c-3.2,0-6.4,0-10,0C284.3,228,271.2,214.2,245.9,211.4z"/>
</g>
</svg>
