<?xml version="1.0" encoding="utf-8"?>
<!-- Generator: Adobe Illustrator 22.1.0, SVG Export Plug-In . SVG Version: 6.00 Build 0)  -->
<svg version="1.1" id="Layer_1" xmlns="http://www.w3.org/2000/svg" xmlns:xlink="http://www.w3.org/1999/xlink" x="0px" y="0px"
	 viewBox="0 0 500 500" style="enable-background:new 0 0 500 500;" xml:space="preserve">
<style type="text/css">
	.st0{fill:#FFFFFF;}
</style>
<circle cx="250" cy="250" r="157"/>
<g>
	<path class="st0" d="M271.4,189.3c13.1,13.1,26.1,26.1,39.6,39.6c-3.6,3.5-7.5,7.1-11.2,10.7c-28.9,28.9-57.9,57.7-86.6,86.7
		c-3.5,3.6-7.5,4.8-12,5.9c-12.5,3-25,6.2-37.5,9.3c-3.9,1-6.2-1.3-5.3-5.2c3.6-14.6,7.2-29.1,10.8-43.6c0.3-1.2,1.1-2.5,2-3.4
		c33.1-33.1,66.2-66.2,99.2-99.3C270.7,189.9,271,189.6,271.4,189.3z"/>
	<path class="st0" d="M322.5,216.8c-13.2-13.2-26.2-26.2-38.7-38.7c4.9-5.2,9.5-11.1,15-15.8c7.3-6.2,18.4-5.2,25.5,1.3
		c4.2,3.9,8.3,8,12.2,12.2c7.3,7.9,7.2,19.4-0.3,27.2C331.7,207.8,327,212.3,322.5,216.8z"/>
</g>
</svg>
