<?xml version="1.0" encoding="utf-8"?>
<!-- Generator: Adobe Illustrator 22.1.0, SVG Export Plug-In . SVG Version: 6.00 Build 0)  -->
<svg version="1.1" id="Layer_1" xmlns="http://www.w3.org/2000/svg" xmlns:xlink="http://www.w3.org/1999/xlink" x="0px" y="0px"
	 viewBox="0 0 500 500" style="enable-background:new 0 0 500 500;" xml:space="preserve">
<style type="text/css">
	.st0{fill:#FBFBFB;}
</style>
<circle cx="250" cy="250" r="157"/>
<g>
	<path class="st0" d="M252.7,319.5c-24.4,0.1-43.7-7.7-61.7-19.4c-17.1-11.1-31.8-24.8-44.8-40.3c-4.9-5.9-5.3-12.9-0.7-18.5
		c18.1-21.9,39.2-40.3,65.4-52.1c31.1-13.9,61-10.6,90.1,5.9c20.7,11.7,38,27.3,53.1,45.5c4.7,5.7,5.1,12.8,0.5,18.2
		c-19.3,23-41.5,42.5-69.8,53.9C273.7,317.2,262.1,319.6,252.7,319.5z M249.7,296.5c25.6,0.1,46.7-20.7,46.7-46.1
		c0.1-25.7-20.7-46.7-46-46.8c-25.7-0.1-46.8,20.6-46.9,46C203.4,275.4,224.1,296.4,249.7,296.5z"/>
	<path d="M249.7,296.5c-25.6-0.1-46.3-21.1-46.2-47c0.1-25.4,21.2-46,46.9-46c25.4,0.1,46.1,21.1,46,46.8
		C296.4,275.8,275.4,296.5,249.7,296.5z M249.9,217c-18.4,0-33,14.7-33,33.1c0,18.4,14.7,33,33.1,33c18.4,0,33-14.7,33-33.1
		C283,231.6,268.3,216.9,249.9,217z"/>
	<path class="st0" d="M249.9,217c18.4,0,33.1,14.6,33.1,33c0,18.4-14.6,33.1-33,33.1c-18.4,0-33.1-14.6-33.1-33
		C216.9,231.7,231.5,217,249.9,217z"/>
</g>
</svg>
